<svg width="760" height="760" viewBox="0 0 760 760" fill="none" xmlns="http://www.w3.org/2000/svg">
  <defs>
    <linearGradient id="bg" x1="66" y1="38" x2="696" y2="706" gradientUnits="userSpaceOnUse">
      <stop stop-color="#101820"/>
      <stop offset=".52" stop-color="#1A3146"/>
      <stop offset="1" stop-color="#0E1722"/>
    </linearGradient>
    <linearGradient id="spoolA" x1="0" y1="0" x2="1" y2="1">
      <stop stop-color="#24D0FF"/>
      <stop offset="1" stop-color="#1B78FF"/>
    </linearGradient>
    <linearGradient id="spoolB" x1="0" y1="0" x2="1" y2="1">
      <stop stop-color="#FFA24B"/>
      <stop offset="1" stop-color="#FF6B4A"/>
    </linearGradient>
  </defs>
  <rect width="760" height="760" rx="40" fill="url(#bg)"/>
  <circle cx="626" cy="118" r="104" fill="#61C6FF" fill-opacity=".14"/>
  <rect x="74" y="82" width="612" height="596" rx="32" fill="rgba(13,28,45,.92)" stroke="rgba(171,208,255,.18)"/>
  <rect x="118" y="128" width="248" height="214" rx="24" fill="#11253A"/>
  <circle cx="242" cy="236" r="92" fill="url(#spoolA)"/>
  <circle cx="242" cy="236" r="52" fill="#123252"/>
  <circle cx="242" cy="236" r="26" fill="#0B2034"/>
  <path d="M190 171C214 184 265 183 295 165" stroke="#A9EEFF" stroke-width="10" stroke-linecap="round" opacity=".75"/>
  <path d="M169 233C196 249 289 250 316 234" stroke="#A9EEFF" stroke-width="10" stroke-linecap="round" opacity=".48"/>
  <path d="M184 300C216 313 270 314 300 297" stroke="#A9EEFF" stroke-width="10" stroke-linecap="round" opacity=".68"/>
  <rect x="394" y="128" width="248" height="214" rx="24" fill="#11253A"/>
  <circle cx="518" cy="236" r="92" fill="url(#spoolB)"/>
  <circle cx="518" cy="236" r="52" fill="#4A241B"/>
  <circle cx="518" cy="236" r="26" fill="#2A130D"/>
  <path d="M472 178C497 193 547 192 575 175" stroke="#FFD5A6" stroke-width="10" stroke-linecap="round" opacity=".8"/>
  <path d="M447 235C476 252 562 252 592 236" stroke="#FFD5A6" stroke-width="10" stroke-linecap="round" opacity=".55"/>
  <path d="M468 297C497 312 542 311 568 294" stroke="#FFD5A6" stroke-width="10" stroke-linecap="round" opacity=".75"/>
  <rect x="118" y="378" width="524" height="178" rx="26" fill="#0F1E31" stroke="rgba(171,208,255,.18)"/>
  <path d="M160 498H602" stroke="#2B4768" stroke-width="4" stroke-dasharray="10 10"/>
  <path d="M196 508V450" stroke="#61C6FF" stroke-width="10" stroke-linecap="round"/>
  <path d="M298 508V416" stroke="#61C6FF" stroke-width="10" stroke-linecap="round"/>
  <path d="M400 508V470" stroke="#61C6FF" stroke-width="10" stroke-linecap="round"/>
  <path d="M502 508V392" stroke="#FF9253" stroke-width="10" stroke-linecap="round"/>
  <path d="M196 450L298 416L400 470L502 392" stroke="#EAF5FF" stroke-width="8" stroke-linecap="round" stroke-linejoin="round"/>
  <rect x="118" y="582" width="524" height="96" rx="22" fill="rgba(9,18,31,.58)" stroke="rgba(255,255,255,.08)"/>
  <text x="150" y="634" fill="#F3F8FE" font-family="PingFang SC, Arial, sans-serif" font-size="42" font-weight="700">耗材库</text>
  <text x="150" y="668" fill="#96B4D2" font-family="PingFang SC, Arial, sans-serif" font-size="24">查品牌、参数区间和材料特性</text>
</svg>
