<svg xmlns="http://www.w3.org/2000/svg" viewBox="0 0 900 600">
  <defs>
    <linearGradient id="bg" x1="0" y1="0" x2="1" y2="1">
      <stop offset="0" stop-color="#3b2a1d"/>
      <stop offset="1" stop-color="#c87b3c"/>
    </linearGradient>
    <linearGradient id="card" x1="0" y1="0" x2="1" y2="1">
      <stop offset="0" stop-color="#fff9f0"/>
      <stop offset="1" stop-color="#ffe3bc"/>
    </linearGradient>
    <linearGradient id="coil" x1="0" y1="0" x2="1" y2="1">
      <stop offset="0" stop-color="#ffd49b"/>
      <stop offset="1" stop-color="#ff9c4b"/>
    </linearGradient>
  </defs>
  <rect width="900" height="600" rx="48" fill="url(#bg)"/>
  <circle cx="180" cy="130" r="120" fill="#fff" opacity=".10"/>
  <circle cx="730" cy="500" r="170" fill="#fff" opacity=".08"/>
  <rect x="120" y="120" width="660" height="370" rx="36" fill="url(#card)" opacity=".96"/>
  <circle cx="310" cy="300" r="124" fill="url(#coil)"/>
  <circle cx="310" cy="300" r="78" fill="#fff4e6"/>
  <circle cx="310" cy="300" r="35" fill="#d98a44"/>
  <path d="M252 250c36-28 86-32 125-8" stroke="#fff3dc" stroke-width="18" stroke-linecap="round" fill="none"/>
  <path d="M260 348c42 30 96 28 124 4" stroke="#fff3dc" stroke-width="18" stroke-linecap="round" fill="none"/>
  <rect x="500" y="185" width="210" height="34" rx="17" fill="#d7a15b"/>
  <rect x="500" y="240" width="160" height="20" rx="10" fill="#edc088"/>
  <rect x="500" y="280" width="190" height="20" rx="10" fill="#edc088"/>
  <rect x="500" y="320" width="140" height="20" rx="10" fill="#edc088"/>
  <circle cx="645" cy="395" r="42" fill="#a95f24"/>
  <rect x="620" y="350" width="50" height="24" rx="12" fill="#53301d"/>
  <text x="450" y="455" text-anchor="middle" fill="#4c2f17" font-size="54" font-family="PingFang SC, Microsoft YaHei, sans-serif" font-weight="700">耗材库</text>
  <text x="450" y="505" text-anchor="middle" fill="#7b5a3c" font-size="28" font-family="PingFang SC, Microsoft YaHei, sans-serif">线材 · 料盘 · 喷嘴 · 参数参考</text>
</svg>
